<svg height="496pt" viewBox="0 0 496 496" width="496pt" xmlns="http://www.w3.org/2000/svg"><path d="m480 192v-104c0-30.871094-25.128906-56-56-56h-152v-8c0-13.230469-10.769531-24-24-24s-24 10.769531-24 24v8h-96v-8c0-13.230469-10.769531-24-24-24s-24 10.769531-24 24v8h-80v64h80v8c0 10.414062 6.710938 19.214844 16 22.527344v18.953125c-9.289062 3.3125-16 12.113281-16 22.527343 0 10.417969 6.710938 19.214844 16 22.527344v17.464844h-24c-13.230469 0-24 10.769531-24 24v208c0 13.230469 10.769531 24 24 24h208c13.230469 0 24-10.769531 24-24v-208c0-13.230469-10.769531-24-24-24h-24v-17.472656c9.289062-3.3125 16-12.113282 16-22.527344s-6.710938-19.214844-16-22.527344v-18.953125c9.289062-3.3125 16-12.113281 16-22.527343v-8h136c4.414062 0 8 3.582031 8 8v88h-16v304h96v-303.992188zm-64 155.3125 64 64v41.375l-64-64zm64 16v25.375l-64-64v-25.375l18.34375 18.34375 11.3125-11.3125-29.65625-29.65625v-41.375l64 64v41.375l-18.34375-18.34375-11.3125 11.3125zm0-155.3125v20.6875l-20.6875-20.6875zm-256-160v32h-96v-32zm-128-24c0-4.414062 3.585938-8 8-8s8 3.585938 8 8v80c0 4.414062-3.585938 8-8 8s-8-3.585938-8-8zm-80 56v-32h64v32zm88 80c4.414062 0 8 3.585938 8 8s-3.585938 8-8 8-8-3.585938-8-8 3.585938-8 8-8zm184 72v208c0 4.414062-3.585938 8-8 8h-208c-4.414062 0-8-3.585938-8-8v-208c0-4.414062 3.585938-8 8-8h208c4.414062 0 8 3.585938 8 8zm-176-24v-17.472656c9.289062-3.3125 16-12.113282 16-22.527344s-6.710938-19.214844-16-22.527344v-18.953125c9.289062-3.3125 16-12.113281 16-22.527343v-8h96v8c0 10.414062 6.710938 19.214843 16 22.527343v18.953125c-9.289062 3.3125-16 12.113282-16 22.527344s6.710938 19.214844 16 22.527344v17.472656zm136-32c-4.414062 0-8-3.585938-8-8s3.585938-8 8-8 8 3.585938 8 8-3.585938 8-8 8zm8-72c0 4.414062-3.585938 8-8 8s-8-3.585938-8-8v-80c0-4.414062 3.585938-8 8-8s8 3.585938 8 8zm152-24h-136v-32h152c22.054688 0 40 17.945312 40 40v104h-32v-88c0-13.230469-10.769531-24-24-24zm28.6875 128 43.3125 43.3125v25.375l-64-64v-4.6875zm-20.6875 251.3125 20.6875 20.6875h-20.6875zm43.3125 20.6875-43.3125-43.3125v-25.375l64 64v4.6875zm0 0"/><path d="m176 432c52.9375 0 96-43.0625 96-96s-43.0625-96-96-96-96 43.0625-96 96 43.0625 96 96 96zm-8-175.59375v15.59375h16v-15.59375c37.734375 3.769531 67.832031 33.859375 71.59375 71.59375h-15.59375v16h15.59375c-3.769531 37.734375-33.859375 67.832031-71.59375 71.59375v-15.59375h-16v15.59375c-37.734375-3.769531-67.832031-33.859375-71.59375-71.59375h15.59375v-16h-15.59375c3.761719-37.734375 33.859375-67.832031 71.59375-71.59375zm0 0"/><path d="m208 328h-24v-40h-16v56h40zm0 0"/></svg>