<svg height="496pt" viewBox="0 -88 496 496" width="496pt" xmlns="http://www.w3.org/2000/svg"><path d="m0 80h16v160h-16v48h496v-48h-16v-160h16v-48h-496zm32 0h48v160h-48zm352 160v-160h16v160zm-16 0h-48v-160h48zm-64 0h-16v-160h16zm-32 0h-48v-160h48zm-64 0h-16v-160h16zm-32 0h-48v-160h48zm-64 0h-16v-160h16zm368 32h-464v-16h464zm-16-32h-48v-160h48zm-448-192h464v16h-464zm0 0"/><path d="m0 0h496v16h-496zm0 0"/><path d="m0 304h496v16h-496zm0 0"/><path d="m48 96h16v16h-16zm0 0"/><path d="m48 208h16v16h-16zm0 0"/><path d="m144 96h16v16h-16zm0 0"/><path d="m144 208h16v16h-16zm0 0"/><path d="m240 96h16v16h-16zm0 0"/><path d="m240 208h16v16h-16zm0 0"/><path d="m336 96h16v16h-16zm0 0"/><path d="m336 208h16v16h-16zm0 0"/><path d="m432 96h16v16h-16zm0 0"/><path d="m432 208h16v16h-16zm0 0"/></svg>