<svg height="486pt" viewBox="0 -19 486.048 486" width="486pt" xmlns="http://www.w3.org/2000/svg"><path d="m422.015625 322.769531 64.03125-109.777343-39.96875-22.199219 23.90625-41.832031-117.550781-65.304688 11.621094-21.097656c13.234374-3.925782 22.96875-16.046875 22.96875-30.535156 0-17.648438-14.351563-32.0000005-32-32.0000005-17.648438 0-32 14.3515625-32 32.0000005 0 2.402343.3125 4.71875.816406 6.976562l-80.816406 146.632812-80.816407-146.632812c.503907-2.257812.816407-4.574219.816407-6.976562 0-17.648438-14.351563-32.0000005-32-32.0000005-17.648438 0-32 14.3515625-32 32.0000005 0 14.488281 9.738281 26.609374 22.960937 30.542968l11.625 21.097656-117.546875 65.296876 23.90625 41.832031-39.96875 22.199219 64.03125 109.777343 102.496094-55.914062-17.335938-26 54.402344-30.222657 12.820312 23.269532-98.367187 178.488281c-6.214844 11.28125-2.453125 25.792969 8.410156 32.351563 3.589844 2.167968 7.597657 3.289062 11.664063 3.289062 1.949218 0 3.917968-.253906 5.855468-.773438 6.101563-1.640624 11.167969-5.648437 14.28125-11.296874l84.765626-153.785157 84.769531 153.785157c3.109375 5.648437 8.175781 9.664062 14.277343 11.296874 1.9375.519532 3.90625.773438 5.859376.773438 4.0625 0 8.070312-1.109375 11.671874-3.289062 10.847657-6.558594 14.613282-21.070313 8.398438-32.351563l-98.367188-178.488281 12.824219-23.269532 54.398438 30.222657-17.335938 26zm41.984375-103.722656-47.96875 82.226563-53.632812-29.25h37.265624l38.480469-67.335938zm-72 34.144531-128.566406-71.429687 54.542968-98.960938 130.09375 72.277344zm-66.3125-184.390625 7.464844-13.542969c3.550781 3.34375 7.878906 5.796876 12.664062 7.253907l-7.375 13.375zm29.335938-52.777343c8.824218 0 16 7.175781 16 16 0 8.824218-7.175782 16-16 16-8.824219 0-16-7.175782-16-16 0-8.824219 7.175781-16 16-16zm-240 16c0-8.824219 7.175781-16 16-16 8.824218 0 16 7.175781 16 16 0 8.824218-7.175782 16-16 16-8.824219 0-16-7.175782-16-16zm25.207031 30.488281c4.785156-1.449219 9.113281-3.910157 12.664062-7.253907l7.464844 13.542969-12.75 7.085938zm27.847656 20.296875 54.546875 98.960937-128.570312 71.429688-56.070313-98.109375zm-146.03125 136.238281 25.855469-14.367187 38.480468 67.34375h37.265626l-53.632813 29.257812zm118.023437 36.976563h-18.183593l13.273437-7.367188zm77.515626-53.160157 12.757812-7.085937 3.542969 6.4375-8.328125 15.113281zm136.398437 217.257813c2.09375 3.789062.871094 8.800781-2.65625 10.933594-1.566406.945312-3.359375 1.234374-5.121094.746093-1.847656-.496093-3.414062-1.761719-4.40625-3.5625l-89.640625-162.636719 8.328125-15.113281zm-209.746094 8.117187c-.992187 1.800781-2.550781 3.066407-4.40625 3.5625-1.753906.488281-3.542969.207031-5.113281-.746093-3.535156-2.144532-4.757812-7.152344-2.664062-10.933594l123.648437-224.34375 12.753906 7.085937zm219.914063-172.214843h-18.183594l4.910156-7.367188zm0 0"/></svg>