<svg height="496pt" viewBox="-48 0 496 496" width="496pt" xmlns="http://www.w3.org/2000/svg"><path d="m383.734375 202.046875.027344-.101563-.050781-.015624c-4.566407-22.648438-9.984376-45.144532-16.472657-67.378907l-18.519531-63.511719c-3.949219-13.558593-16.582031-23.039062-30.71875-23.039062h-9.054688l-24-48h-169.890624l-24 48h-9.054688c-14.136719 0-26.769531 9.480469-30.71875 23.039062l-18.519531 63.503907c-6.488281 22.242187-11.898438 44.730469-16.472657 67.378906l-.050781.023437.027344.101563c-10.730469 53.210937-16.265625 107.378906-16.265625 161.800781 0 25.175782 7.144531 49.703125 20.664062 70.945313 24.382813 38.328125 66.0625 61.207031 111.488282 61.207031h135.695312c45.425782 0 87.105469-22.878906 111.496094-61.199219 13.511719-21.25 20.65625-45.777343 20.65625-70.953125 0-54.421875-5.535156-108.589844-16.265625-161.800781zm.265625 161.800781c0 9.558594-1.238281 18.992188-3.527344 28.152344h-28.34375c.613282-44.449219 6.320313-88.785156 17.09375-131.910156l5.042969-20.160156c6.398437 40.941406 9.734375 82.351562 9.734375 123.917968zm-259.054688-347.847656h150.109376l16 32h-182.109376zm-76.824218 123.023438 18.519531-63.503907c1.976563-6.785156 8.296875-11.519531 15.359375-11.519531h236c7.0625 0 13.382812 4.734375 15.359375 11.519531l18.519531 63.503907c6.03125 20.671874 11.121094 41.570312 15.464844 62.601562l-13.648438 54.574219c-11.09375 44.402343-16.960937 90.039062-17.574218 135.792969h-18.351563l-14.890625-44.65625c-5.445312-16.34375-20.703125-27.335938-37.941406-27.335938h-129.875c-17.238281 0-32.496094 10.992188-37.941406 27.34375l-14.890625 44.65625h-18.351563c-.613281-45.753906-6.480468-91.398438-17.574218-135.792969l-13.648438-54.574219c4.335938-21.039062 9.433594-41.9375 15.464844-62.609374zm205.503906 244.976562h-107.25c-1.535156-4.664062-2.375-9.574219-2.375-14.632812v-1.367188h112v1.367188c0 5.058593-.839844 9.96875-2.375 14.632812zm-9.152344 16c-.695312.792969-1.375 1.59375-2.128906 2.34375-8.808594 8.808594-20.511719 13.65625-32.976562 13.65625h-18.742188c-12.457031 0-24.167969-4.847656-32.976562-13.65625-.753907-.75-1.433594-1.550781-2.128907-2.34375zm11.527344-48h-112v-16h112zm-230.265625-112.070312 5.042969 20.160156c10.78125 43.125 16.480468 87.460937 17.101562 131.910156h-28.351562c-2.289063-9.160156-3.527344-18.59375-3.527344-28.152344 0-41.566406 3.335938-82.976562 9.734375-123.917968zm242.113281 240.070312h-135.695312c-39.929688 0-76.558594-20.113281-97.992188-53.800781-3.695312-5.800781-6.777344-11.910157-9.367187-18.199219h59.285156c10.257813 12.640625 50.234375 56 115.921875 56 26.855469 0 52.488281-7.351562 76.175781-21.863281l-8.351562-13.648438c-21.144531 12.953125-43.960938 19.511719-67.824219 19.511719-57.28125 0-93.59375-38.304688-103.039062-49.574219l15.335937-46.011719c2.496094-7.492187 8.429687-13.085937 15.703125-15.316406v32.277344c0 16.730469 6.511719 32.457031 18.34375 44.289062 11.832031 11.832032 27.550781 18.335938 44.289062 18.335938h18.742188c16.730469 0 32.457031-6.511719 44.289062-18.34375 11.832032-11.832031 18.335938-27.550781 18.335938-44.289062v-32.277344c7.273438 2.238281 13.207031 7.820312 15.703125 15.316406l15.335937 46.007812c-3.664062 4.371094-11.3125 12.761719-22.488281 21.347657l9.746094 12.6875c12.992187-9.976563 21.574219-19.585938 25.574219-24.457031h59.335937c-2.589843 6.296874-5.671875 12.398437-9.367187 18.207031-21.433594 33.6875-58.0625 53.800781-97.992188 53.800781zm0 0"/><path d="m126.832031 304h146.335938c27 0 51.28125-15 63.351562-39.160156 4.894531-9.777344 7.480469-20.726563 7.480469-31.671875 0-33.289063-4.097656-66.527344-12.167969-98.808594l-13.585937-54.359375h-236.492188l-13.59375 54.359375c-8.0625 32.28125-12.160156 65.519531-12.160156 98.808594 0 10.945312 2.585938 21.894531 7.480469 31.671875 12.070312 24.160156 36.351562 39.160156 63.351562 39.160156zm146.335938-16h-146.335938c-20.902343 0-39.695312-11.617188-49.039062-30.3125-.273438-.542969-.472657-1.128906-.730469-1.6875h245.875c-.257812.558594-.449219 1.144531-.730469 1.6875-9.34375 18.695312-28.136719 30.3125-49.039062 30.3125zm-65.167969-144v96h-16v-96zm119.542969 96h-103.542969v-96h93.566406c6.832032 29.207031 10.433594 59.160156 10.433594 89.167969 0 2.289062-.167969 4.566406-.457031 6.832031zm-21.789063-144 8 32h-227.507812l8-32zm-223.320312 48h93.566406v96h-103.542969c-.289062-2.265625-.457031-4.542969-.457031-6.832031 0-30.007813 3.601562-59.960938 10.433594-89.167969zm0 0"/></svg>