<svg height="491pt" viewBox="0 -29 491.104 491" width="491pt" xmlns="http://www.w3.org/2000/svg"><path d="m339.097656 56.050781c-22.058594 0-40 17.945313-40 40v8h16v48h-48v-103.015625l8.855469-35.4375-13.546875-13.5468748h-70.621094l-13.546875 13.5468748 8.859375 35.4375v103.015625h-24v-8c0-6.902343-2.96875-13.078125-7.648437-17.460937l7.535156-45.21875.113281-1.320313c0-13.230469-10.769531-24-24-24-13.234375 0-24 10.769531-24 24l7.644532 46.527344c-4.679688 4.386719-7.644532 10.570313-7.644532 17.472656v8h-8c-13.234375 0-24 10.769531-24 24v9.753907l-32 8v76.496093l32 7.992188v17.757812h-45.769531l-37.328125 112h137.59375c8.308594 14.320313 23.78125 24 41.503906 24 22.375 0 41.167969-15.40625 46.460938-36.160156 10.378906 21.363281 32.234375 36.160156 57.539062 36.160156 32.574219 0 59.488282-24.480469 63.445313-56h17.113281c3.960938 31.519531 30.871094 56 63.449219 56 35.285156 0 64-28.710937 64-64v-312zm0 16h136v16h-158.632812c3.304687-9.3125 12.199218-16 22.632812-16zm24.550782 288h-17.113282c-.703125-5.582031-2.101562-10.949219-4.160156-16h25.425781c-2.039062 5.050781-3.449219 10.417969-4.152343 16zm-165.242188-344h57.378906l2.453125 2.457031-5.390625 21.542969h-51.503906l-5.382812-21.542969zm4.691406 40h48v96h-48zm-71.984375 23.449219c.285157-4.152344 3.757813-7.449219 7.984375-7.449219 4.222656 0 7.695313 3.296875 7.980469 7.449219l-6.773437 40.671875c-.417969-.015625-.792969-.121094-1.207032-.121094-.417968 0-.792968.105469-1.203125.121094zm-.015625 64.550781c0-4.40625 3.589844-8 8-8 4.40625 0 8 3.59375 8 8v8h-16zm-64 113.753907v-51.503907l16-4v59.503907zm32-81.753907c0-4.40625 3.589844-8 8-8h24v64h16v-64h168v144.65625c-9.425781-5.472656-20.335937-8.65625-32-8.65625-15.128906 0-29.035156 5.304688-40 14.121094v-46.121094c0-22.054687-17.945312-40-40-40-22.058594 0-40 17.945313-40 40v56h-16v-80h-16v48h-32zm32 184v-16h92.710938c-2.046875 5.050781-3.457032 10.417969-4.160156 16zm48-80h48v16h-48zm1.46875-16c3.3125-9.285156 12.113282-16 22.53125-16 10.414063 0 19.214844 6.714844 22.527344 16zm-1.46875 48h48v16h-48zm-130.234375 0h23.136719l-26.671875 80h-23.136719zm13.335938 80 26.664062-80h42.234375v16h-16v48h16.710938c-.441406 2.632813-.710938 5.296875-.710938 8 0 2.730469.277344 5.394531.71875 8zm116.898437 24c-17.648437 0-32-14.351562-32-32 0-2.734375.460938-5.390625 1.132813-8h61.738281c.671875 2.601563 1.128906 5.257813 1.128906 8 0 17.648438-14.355468 32-32 32zm104 0c-26.472656 0-48-21.527343-48-48 0-26.472656 21.527344-48 48-48 23.734375 0 43.445313 17.335938 47.277344 40h-24.75c-3.3125-9.285156-12.113281-16-22.527344-16-13.234375 0-24 10.769531-24 24 0 13.234375 10.765625 24 24 24 10.414063 0 19.214844-6.710937 22.527344-16h24.75c-3.832031 22.664063-23.542969 40-47.277344 40zm8-48c0 4.417969-3.59375 8-8 8-4.410156 0-8-3.582031-8-8 0-4.414062 3.589844-8 8-8 4.40625 0 8 3.585938 8 8zm136 48c-23.738281 0-43.449218-17.335937-47.28125-40h24.75c3.3125 9.289063 12.113282 16 22.53125 16 13.230469 0 24-10.765625 24-24 0-13.230469-10.769531-24-24-24-10.417968 0-19.21875 6.714844-22.53125 16h-24.75c3.824219-22.664062 23.535156-40 47.28125-40 26.46875 0 48 21.527344 48 48 0 26.472657-21.53125 48-48 48zm-8-48c0-4.414062 3.589844-8 8-8 4.40625 0 8 3.585938 8 8 0 4.417969-3.59375 8-8 8-4.410156 0-8-3.582031-8-8zm8-64c-20.160156 0-38.144531 9.394531-49.882812 24h-44.238282c-.601562-.75-1.242187-1.460937-1.878906-2.191406v-37.808594h128v-112c0-30.878906-25.121094-56-56-56-30.882812 0-56 25.121094-56 56v96h-16v-168h144v221.808594c-11.738281-13.335937-28.882812-21.808594-48-21.808594zm-48-120v8c0 4.410157-3.59375 8-8 8-4.410156 0-8-3.589843-8-8v-8zm48 0h16v8c0 4.410157-3.59375 8-8 8-4.410156 0-8-3.589843-8-8zm-16 8c0 4.410157-3.59375 8-8 8-4.410156 0-8-3.589843-8-8v-8h16zm-48 22.527344c2.511719.898437 5.183594 1.472656 8 1.472656 6.167969 0 11.742188-2.40625 16-6.238281 4.253906 3.839844 9.832032 6.238281 16 6.238281 6.167969 0 11.742188-2.40625 16-6.238281 4.253906 3.839844 9.832032 6.238281 16 6.238281 2.8125 0 5.488282-.574219 8-1.472656v57.472656h-80zm.804688-46.527344c3.722656-18.230469 19.875-32 39.195312-32 19.316406 0 35.46875 13.769531 39.191406 32zm0 0"/><path d="m275.097656 184.050781h16v16h-16zm0 0"/><path d="m275.097656 216.050781h16v16h-16zm0 0"/><path d="m275.097656 248.050781h16v16h-16zm0 0"/></svg>