<svg height="496pt" viewBox="-32 0 496 496" width="496pt" xmlns="http://www.w3.org/2000/svg"><path d="m368 244.945312v-92.945312c0-22.054688-17.945312-40-40-40h-224c-22.054688 0-40 17.945312-40 40v92.945312l152 76zm-262.113281 3.054688h220.21875l-110.105469 55.054688zm102.113281-16v-104h16v104zm144-80v80h-112v-104h88c13.230469 0 24 10.769531 24 24zm-248-24h88v104h-112v-80c0-13.230469 10.769531-24 24-24zm0 0"/><path d="m344 272c-13.230469 0-24 10.769531-24 24s10.769531 24 24 24 24-10.769531 24-24-10.769531-24-24-24zm0 32c-4.40625 0-8-3.59375-8-8s3.59375-8 8-8 8 3.59375 8 8-3.59375 8-8 8zm0 0"/><path d="m88 320c13.230469 0 24-10.769531 24-24s-10.769531-24-24-24-24 10.769531-24 24 10.769531 24 24 24zm0-32c4.40625 0 8 3.59375 8 8s-3.59375 8-8 8-8-3.59375-8-8 3.59375-8 8-8zm0 0"/><path d="m176 48h16v16h-16zm0 0"/><path d="m240 48h16v16h-16zm0 0"/><path d="m64 368h80v16h-80zm0 0"/><path d="m288 368h80v16h-80zm0 0"/><path d="m408 136h-8v-18.519531l-1.449219-2.066407c-1.496093-2.132812-36.726562-51.238281-110.550781-73.132812v-10.28125c0-8.824219-7.175781-16-16-16h-24v-16h-16v16h-32v-16h-16v16h-24c-8.824219 0-16 7.175781-16 16v10.28125c-73.824219 21.894531-109.054688 71-110.550781 73.132812l-1.449219 2.066407v18.519531h-8c-13.230469 0-24 10.769531-24 24v72c0 13.230469 10.769531 24 24 24h8v144h-16v40c0 30.878906 25.121094 56 56 56h288c30.878906 0 56-25.121094 56-56v-40h-16v-144h8c13.230469 0 24-10.769531 24-24v-72c0-13.230469-10.769531-24-24-24zm-248-104h112l.007812 48h-112.007812zm-16 26.945312v21.054688c0 8.824219 7.175781 16 16 16h112c8.824219 0 16-7.175781 16-16v-21.046875c57.496094 18.453125 89.089844 54.992187 96 63.734375v213.3125h-336v-213.320312c6.863281-8.742188 38.273438-45.222657 96-63.734376zm-120 181.054688c-4.40625 0-8-3.59375-8-8v-72c0-4.40625 3.59375-8 8-8h8v88zm312 240h-16v-32h8c4.40625 0 8 3.59375 8 8zm-32 0h-16v-32h16zm-32 0h-16v-32h16zm-32 0h-16v-32h16zm-32 0h-16v-32h16zm-32 0h-16v-32h16zm-32 0h-16v-32h16zm-32 0h-16v-24c0-4.40625 3.59375-8 8-8h8zm288-40c0 22.054688-17.945312 40-40 40h-8v-24c0-13.230469-10.769531-24-24-24h-224c-13.230469 0-24 10.769531-24 24v24h-8c-22.054688 0-40-17.945312-40-40v-24h368zm-352-40v-48h336v48zm368-168c0 4.40625-3.59375 8-8 8h-8v-88h8c4.40625 0 8 3.59375 8 8zm0 0"/></svg>