<svg height="496pt" viewBox="0 0 496 496" width="496pt" xmlns="http://www.w3.org/2000/svg"><path d="m496 0h-496v25.886719l7.054688 14.113281-7.054688 14.113281v25.886719h64v16c0 14.863281 10.238281 27.289062 24 30.863281v10.273438c-13.761719 3.574219-24 16-24 30.863281v16c0 14.863281 10.238281 27.289062 24 30.863281v9.136719h-88v272h496v-272h-88v-9.136719c13.761719-3.574219 24-16 24-30.863281v-16c0-14.863281-10.238281-27.289062-24-30.863281v-10.273438c13.761719-3.574219 24-16 24-30.863281v-16h64v-25.886719l-7.054688-14.113281 7.054688-14.113281zm-416 96v-16h32v16c0 5.894531-3.238281 11-8 13.777344v-5.777344h-16v5.777344c-4.761719-2.777344-8-7.882813-8-13.777344zm0 88v-16c0-5.894531 3.238281-11 8-13.777344v13.777344h16v-13.777344c4.761719 2.777344 8 7.882813 8 13.777344v16c0 5.894531-3.238281 11-8 13.777344v-13.777344h-16v13.777344c-4.761719-2.777344-8-7.882813-8-13.777344zm400 296h-464v-240h464zm-376-256v-9.136719c13.761719-3.574219 24-16 24-30.863281v-16c0-14.863281-10.238281-27.289062-24-30.863281v-10.273438c13.761719-3.574219 24-16 24-30.863281v-16h240v16c0 14.863281 10.238281 27.289062 24 30.863281v10.273438c-13.761719 3.574219-24 16-24 30.863281v16c0 14.863281 10.238281 27.289062 24 30.863281v9.136719zm312-56v16c0 5.894531-3.238281 11-8 13.777344v-13.777344h-16v13.777344c-4.761719-2.777344-8-7.882813-8-13.777344v-16c0-5.894531 3.238281-11 8-13.777344v13.777344h16v-13.777344c4.761719 2.777344 8 7.882813 8 13.777344zm0-72c0 5.894531-3.238281 11-8 13.777344v-5.777344h-16v5.777344c-4.761719-2.777344-8-7.882813-8-13.777344v-16h32zm64-73.886719-8.945312 17.886719 8.945312 17.886719v6.113281h-48c0-17.648438-14.351562-32-32-32v16c8.824219 0 16 7.175781 16 16h-288c0-17.648438-14.351562-32-32-32v16c8.824219 0 16 7.175781 16 16h-96v-6.113281l8.945312-17.886719-8.945312-17.886719v-6.113281h464zm0 0"/><path d="m80 448h-32v-176h352v-16h-368v208h48zm0 0"/><path d="m448 448h-352v16h368v-208h-48v16h32zm0 0"/><path d="m208 288h-144v144h144zm-16 128h-112v-112h112zm0 0"/><path d="m224 320h97.0625v16h-97.0625zm0 0"/><path d="m334.9375 320h97.0625v16h-97.0625zm0 0"/><path d="m224 384h97.0625v16h-97.0625zm0 0"/><path d="m334.9375 384h97.0625v16h-97.0625zm0 0"/><path d="m224 352h208v16h-208zm0 0"/></svg>