<svg height="496pt" viewBox="0 0 496 496" width="496pt" xmlns="http://www.w3.org/2000/svg"><path d="m0 480h16v16h-16zm0 0"/><path d="m480 480h16v16h-16zm0 0"/><path d="m240 304h16v16h-16zm0 0"/><path d="m469.480469 344-56.726563-104h-20.753906v-88h16v-48h-48v-56h48v-48h-64v104h-88v-56h48v-48h-64v104h-88v-56h48v-48h-64v104h-48v48h16v88h-20.753906l-56.726563 104h21.480469v136h-16v16h432v-16h-16v-136zm-109.480469-328h32v16h-32zm-104 0h32v16h-32zm-104 0h32v16h-32zm-48 104h288v16h-288zm240.6875 189.375-53.375-53.375h31.933594l39.273437 72h-10.625c.015625-.328125.105469-.640625.105469-.96875 0-6.574219-2.664062-13.007812-7.3125-17.65625zm-32.6875-69.375v-56h32v56zm29.472656 16h21.773438l39.273437 72h-21.777343zm34.527344-16h-16v-72h-64v72h-16v-72h-64v72h-16v-72h-64v72h-16v-88h256zm-112-56v45.328125c-9.375-6.640625-22.632812-6.640625-32 0v-45.328125zm-119.902344 144h-10.625l39.269532-72h31.9375l-53.375 53.375c-4.640626 4.648438-7.304688 11.082031-7.304688 17.65625 0 .328125.089844.640625.097656.96875zm10.429688-72-39.269532 72h-21.777343l39.273437-72zm-2.527344-16v-56h32v56zm-59.246094 16h21.773438l-39.269532 72h-21.777343zm35.246094 224h-32v-88h32zm32 0h-16v-104h-64v104h-16v-136h86.761719c2.550781 2.734375 5.6875 4.886719 9.238281 6.265625zm32 0h-16v-128h16zm96 0h-80v-128h80zm-92.6875-144 52.6875-52.6875 52.6875 52.6875zm124.6875 144h-16v-128h16zm7.03125-144c-2.398438 0-4.648438-.929688-6.34375-2.625l-72.6875-72.6875-72.6875 72.6875c-1.695312 1.695312-3.945312 2.625-6.34375 2.625-4.945312 0-8.96875-4.023438-8.96875-8.96875 0-2.359375.960938-4.671875 2.625-6.34375l77.375-77.375c4.265625-4.28125 11.71875-4.28125 16 0l77.375 77.375c1.664062 1.671875 2.625 3.984375 2.625 6.34375 0 4.945312-4.023438 8.96875-8.96875 8.96875zm72.96875 144h-32v-88h32zm32 0h-16v-104h-64v104h-16v-129.734375c3.550781-1.378906 6.6875-3.53125 9.238281-6.265625h86.761719zm-11.246094-152-39.273437-72h21.777343l39.269532 72zm0 0"/></svg>