<svg height="496pt" viewBox="0 -48 496 496" width="496pt" xmlns="http://www.w3.org/2000/svg"><path d="m240 32h16v16h-16zm0 0"/><path d="m336 32h16v16h-16zm0 0"/><path d="m144 32h16v16h-16zm0 0"/><path d="m280 160c0-17.648438-14.351562-32-32-32s-32 14.351562-32 32v48h64zm-16 32h-32v-32c0-8.824219 7.175781-16 16-16s16 7.175781 16 16zm0 0"/><path d="m376 160c0-17.648438-14.351562-32-32-32s-32 14.351562-32 32v48h64zm-16 32h-32v-32c0-8.824219 7.175781-16 16-16s16 7.175781 16 16zm0 0"/><path d="m184 160c0-17.648438-14.351562-32-32-32s-32 14.351562-32 32v48h64zm-16 32h-32v-32c0-8.824219 7.175781-16 16-16s16 7.175781 16 16zm0 0"/><path d="m344 312h16v16h-16zm0 0"/><path d="m240 312h16v16h-16zm0 0"/><path d="m136 312h16v16h-16zm0 0"/><path d="m496 248h-16v-40c0-13.230469-10.769531-24-24-24s-24 10.769531-24 24v40h-16v-136h16v-48h-16v-32c0-17.648438-14.351562-32-32-32h-272c-17.648438 0-32 14.351562-32 32v32h-16v48h16v136h-16v-40c0-13.230469-10.769531-24-24-24s-24 10.769531-24 24v40h-16v48h102.472656c-4.160156 7.175781-6.472656 15.367188-6.472656 24 0 12.304688 4.6875 23.496094 12.320312 32h-108.320312v48h496v-48h-108.320312c7.632812-8.503906 12.320312-19.695312 12.320312-32 0-8.574219-2.34375-16.800781-6.511719-24h102.511719zm-40-48c4.414062 0 8 3.59375 8 8v8h-16v-8c0-4.40625 3.585938-8 8-8zm-8 32h16v16h-16zm-48-200v32h-16v-48c8.824219 0 16 7.175781 16 16zm-272 32v-48h48v48zm64-48h16v48h-16zm32 0h48v48h-48zm64 0h16v48h-16zm32 0h48v48h-48zm-224 16c0-8.824219 7.175781-16 16-16v48h-16zm-16 48h336v16h-336zm320 32v168h-16c0-22.054688-17.945312-40-40-40h-192c-22.054688 0-40 17.945312-40 40h-16v-168zm-208.753906 200c-.957032-5.671875-2.910156-11.078125-5.757813-16h20.984375c-2.847656 4.921875-4.792968 10.3125-5.738281 16zm9.472656 16c1.546875 9.136719 5.664062 17.382812 11.601562 24h-32.640624c5.9375-6.617188 10.054687-14.863281 11.601562-24zm16.417969 0h6.863281v-16h-6.9375c1.585938-6.214844 5.097656-11.703125 10.042969-16h42.054687c4.824219 4.257812 8.222656 9.839844 9.816406 16h-6.976562v16h6.863281c-3.574219 13.769531-15.992187 24-30.863281 24s-27.289062-10.230469-30.863281-24zm78.144531 0h9.445312c1.546876 9.136719 5.664063 17.382812 11.601563 24h-32.648437c5.9375-6.617188 10.054687-14.863281 11.601562-24zm-.035156-16c-.957032-5.671875-2.910156-11.078125-5.757813-16h20.984375c-2.847656 4.921875-4.792968 10.3125-5.738281 16zm-167.246094-32c0-13.230469 10.769531-24 24-24h192c13.230469 0 24 10.769531 24 24zm-88-80c4.414062 0 8 3.59375 8 8v8h-16v-8c0-4.40625 3.585938-8 8-8zm-8 32h16v16h-16zm-16 32h64v16h-64zm96 56c0-9.375 4.113281-17.921875 11.113281-24h42.039063c4.824218 4.257812 8.222656 9.839844 9.816406 16h-6.96875v16h6.863281c-3.574219 13.769531-15.992187 24-30.863281 24-17.648438 0-32-14.351562-32-32zm368 64h-464v-16h464zm-96-64c0 17.648438-14.351562 32-32 32-14.871094 0-27.289062-10.230469-30.863281-24h6.863281v-16h-6.9375c1.59375-6.207031 5.105469-11.695312 10.050781-16h42.046875c6.847656 6.039062 10.839844 14.742188 10.839844 24zm96-40h-64v-16h64zm0 0"/></svg>