<svg height="496pt" viewBox="0 -40 496 496" width="496pt" xmlns="http://www.w3.org/2000/svg"><path d="m496 232v-144c0-30.878906-25.121094-56-56-56h-112v-16c0-8.824219-7.175781-16-16-16h-128c-8.824219 0-16 7.175781-16 16v16h-112c-30.878906 0-56 25.121094-56 56v144c0 16.144531 6.902344 30.664062 17.863281 40.894531-10.246093 2.730469-17.863281 12-17.863281 23.105469v16c0 13.230469 10.769531 24 24 24h5.480469c-3.480469 7.289062-5.480469 15.398438-5.480469 24 0 30.878906 25.121094 56 56 56 20.382812 0 38.199219-10.984375 48-27.304688 9.800781 16.320313 27.617188 27.304688 48 27.304688 30.878906 0 56-25.121094 56-56 0-8.601562-2-16.710938-5.480469-24h42.960938c-3.480469 7.289062-5.480469 15.398438-5.480469 24 0 30.878906 25.121094 56 56 56 20.382812 0 38.199219-10.984375 48-27.304688 9.800781 16.320313 27.617188 27.304688 48 27.304688 30.878906 0 56-25.121094 56-56 0-8.601562-2-16.710938-5.480469-24h5.480469c13.230469 0 24-10.769531 24-24v-16c0-11.105469-7.617188-20.375-17.863281-23.105469 10.960937-10.230469 17.863281-24.75 17.863281-40.894531zm-16-144v144c0 22.054688-17.945312 40-40 40h-32v-224h32c22.054688 0 40 17.945312 40 40zm-376 184v-224h16v224zm32-224h64v168c0 13.230469 10.769531 24 24 24v-16c-4.40625 0-8-3.59375-8-8v-24h64v24c0 13.230469 10.769531 24 24 24v-16c-4.40625 0-8-3.59375-8-8v-168h64v224h-224zm144 128h-64v-32h64zm0-48h-64v-32h64zm0-48h-64v-32h64zm96-32h16v224h-16zm-192-32h128v16h-128zm-168 216v-144c0-22.054688 17.945312-40 40-40h32v224h-32c-22.054688 0-40-17.945312-40-40zm64 168c-22.054688 0-40-17.945312-40-40s17.945312-40 40-40 40 17.945312 40 40-17.945312 40-40 40zm96 0c-22.054688 0-40-17.945312-40-40s17.945312-40 40-40 40 17.945312 40 40-17.945312 40-40 40zm144 0c-22.054688 0-40-17.945312-40-40s17.945312-40 40-40 40 17.945312 40 40-17.945312 40-40 40zm96 0c-22.054688 0-40-17.945312-40-40s17.945312-40 40-40 40 17.945312 40 40-17.945312 40-40 40zm56-112c4.40625 0 8 3.59375 8 8v16c0 4.40625-3.59375 8-8 8h-16.878906c-10.105469-9.878906-23.90625-16-39.121094-16s-29.015625 6.121094-39.121094 16h-17.757812c-10.105469-9.878906-23.90625-16-39.121094-16s-29.015625 6.121094-39.121094 16h-65.757812c-10.105469-9.878906-23.90625-16-39.121094-16s-29.015625 6.121094-39.121094 16h-17.757812c-10.105469-9.878906-23.90625-16-39.121094-16s-29.015625 6.121094-39.121094 16h-16.878906c-4.40625 0-8-3.59375-8-8v-16c0-4.40625 3.59375-8 8-8zm0 0"/><path d="m80 336c-13.230469 0-24 10.769531-24 24s10.769531 24 24 24 24-10.769531 24-24-10.769531-24-24-24zm0 32c-4.40625 0-8-3.59375-8-8s3.59375-8 8-8 8 3.59375 8 8-3.59375 8-8 8zm0 0"/><path d="m176 336c-13.230469 0-24 10.769531-24 24s10.769531 24 24 24 24-10.769531 24-24-10.769531-24-24-24zm0 32c-4.40625 0-8-3.59375-8-8s3.59375-8 8-8 8 3.59375 8 8-3.59375 8-8 8zm0 0"/><path d="m320 336c-13.230469 0-24 10.769531-24 24s10.769531 24 24 24 24-10.769531 24-24-10.769531-24-24-24zm0 32c-4.40625 0-8-3.59375-8-8s3.59375-8 8-8 8 3.59375 8 8-3.59375 8-8 8zm0 0"/><path d="m416 336c-13.230469 0-24 10.769531-24 24s10.769531 24 24 24 24-10.769531 24-24-10.769531-24-24-24zm0 32c-4.40625 0-8-3.59375-8-8s3.59375-8 8-8 8 3.59375 8 8-3.59375 8-8 8zm0 0"/></svg>