<svg height="496pt" viewBox="0 0 496 496" width="496pt" xmlns="http://www.w3.org/2000/svg"><path d="m369.265625 209.800781c-24.320313-10.945312-46.203125-26.058593-65.058594-44.898437-41.398437-41.40625-64.207031-96.460938-64.207031-155.023438v-9.878906h-48v10.632812c0 1.800782.097656 3.574219.128906 5.367188h-144.128906v-16h-48v74.632812c0 72.664063 28.296875 140.984376 79.671875 192.359376 23.703125 23.695312 51.25 42.617187 81.871094 56.230468 57.386719 25.496094 94.457031 82.546875 94.457031 145.328125v27.449219h48v-16h144v16h48v-90.191406c0-84.433594-49.753906-161.367188-126.734375-196.007813zm-74.914063 196.648438 147.785157-44.335938c3.785156 13.628907 5.863281 27.871094 5.863281 42.4375v11.449219h-151.007812c-.832032-3.199219-1.664063-6.398438-2.640626-9.550781zm-5.320312-15.113281c-3.671875-9.34375-7.976562-18.390626-12.894531-27.105469l143.4375-50.199219c7.089843 10.226562 13.019531 21.242188 17.554687 32.878906zm-21.511719-41.046876c-2.617187-3.914062-5.335937-7.746093-8.207031-11.472656l118.007812-66.375c11.976563 8.007813 22.726563 17.496094 31.984376 28.230469zm-18.617187-23.96875c-8.980469-10.023437-18.910156-19.25-29.726563-27.496093l100.664063-57.519531c10.761718 6.726562 22.007812 12.71875 33.710937 17.917968 2.664063 1.183594 5.25 2.503906 7.824219 3.824219zm-44.175782-37.664062c-8.703124-5.558594-17.871093-10.542969-27.46875-14.855469-1.699218-.761719-3.289062-1.703125-4.960937-2.503906l114.855469-54.050781c5.785156 4.953125 11.757812 9.640625 17.910156 14.082031zm-49.964843-26.800781c-13.089844-7.824219-25.273438-17.015625-36.503907-27.429688l130.230469-57.882812c7.128907 9.21875 14.816407 18.082031 23.191407 26.449219.878906.878906 1.808593 1.710937 2.695312 2.574218zm-48.777344-39.496094c-9.417969-10.199219-17.738281-21.160156-24.953125-32.71875l146.769531-44.03125c3.457031 6.023437 7.109375 11.933594 11.039063 17.703125zm-33.144531-46.96875c-6.824219-13.03125-12.28125-26.710937-16.335938-40.871094l152.472656-29.039062c3.253907 8.765625 6.976563 17.351562 11.128907 25.734375zm-20.183594-56.421875c-2.648438-12.710938-4.144531-25.738281-4.503906-38.96875h152.785156c.894531 3.414062 1.804688 6.816406 2.832031 10.183594zm140.246094-86.96875c.832031 10.800781 2.226562 21.496094 4.304687 32h-149.207031v-32zm95.097656 448h-16v-11.449219c0-69.109375-40.808594-131.886719-103.953125-159.949219-28.832031-12.816406-54.75-30.617187-77.0625-52.921874-48.351563-48.359376-74.984375-112.65625-74.984375-181.046876v-58.632812h16v57.878906c0 62.832032 24.472656 121.898438 68.894531 166.328125 20.226563 20.226563 43.714844 36.433594 69.800781 48.175781 71.257813 32.074219 117.304688 103.28125 117.304688 181.425782zm15.785156-16c-.296875-10.832031-1.410156-21.519531-3.289062-32h147.503906v32zm176.214844 16h-16v-75.449219c0-69.109375-40.808594-131.886719-103.953125-159.949219-28.832031-12.816406-54.75-30.617187-77.0625-52.921874-47.089844-47.09375-73.578125-109.296876-74.929687-175.679688h16.023437c1.539063 60.535156 25.832031 117.222656 68.816406 160.207031 20.226563 20.226563 43.714844 36.433594 69.800781 48.175781 71.257813 32.074219 117.304688 103.28125 117.304688 181.425782zm0 0"/></svg>