<?xml version="1.0" encoding="utf-8"?>
<!-- Svg Vector Icons : http://www.onlinewebfonts.com/icon -->
<!DOCTYPE svg PUBLIC "-//W3C//DTD SVG 1.1//EN" "http://www.w3.org/Graphics/SVG/1.1/DTD/svg11.dtd">
<svg version="1.1" xmlns="http://www.w3.org/2000/svg" xmlns:xlink="http://www.w3.org/1999/xlink" x="0px" y="0px" viewBox="0 0 1000 1000" enable-background="new 0 0 1000 1000" xml:space="preserve">
<metadata> Svg Vector Icons : http://www.onlinewebfonts.com/icon </metadata>
<g><g transform="translate(0.000000,511.000000) scale(0.100000,-0.100000)"><path d="M732.2,1180.1v-3836.3l1968.4-1060.1c1452.4-782.2,1991.7-1062.4,2064.1-1071.7c116.8-11.7,196.1,30.4,263.9,142.4c46.7,72.4,46.7,147.1,46.7,3486.1c0,3318-2.3,3413.7-44.4,3542.1c-60.7,172.8-193.8,371.3-315.2,469.3c-51.4,42-962,541.7-2022.1,1111.5C1633.5,4533.1,760.2,5002.4,750.8,5007.1C739.2,5011.7,732.2,3290.9,732.2,1180.1z"/><path d="M1958,4995.4c14-11.7,319.9-179.8,684.1-373.6l658.5-354.9h1681.2H6663v-899v-899h373.6h375.9l-7,1081.1l-7,1083.4l-70,114.4c-44.4,70-114.4,140.1-184.5,184.5l-114.4,70l-2547.5,7C3064.8,5011.7,1946.3,5007.1,1958,4995.4z"/><path d="M7961.2,2431.6c-7-21-14-114.4-14-212.5c0-161.1-4.7-179.8-67.7-242.8l-67.7-67.7H6791.4H5771l-67.7-67.7l-67.7-67.7v-576.7c0-637.4,9.3-686.5,142.4-733.2c51.4-16.3,399.3-25.7,1064.8-25.7h990l56-60.7c51.4-56,58.4-84.1,58.4-245.2c0-205.5,11.7-254.5,67.7-254.5c46.7,0,1230.5,1183.8,1249.2,1253.9c9.3,28,0,84.1-16.3,128.4c-21,44.4-282.5,324.6-604.8,644.4C8080.3,2462,7998.6,2527.3,7961.2,2431.6z"/><path d="M6679.3-113.5c-9.3-9.3-16.3-420.3-16.3-913v-894.3h-513.7h-513.7v-375.9v-373.6l684.1,7c649.1,7,686.5,9.3,777.5,58.4c123.8,67.7,256.8,217.1,289.5,326.9c16.4,60.7,23.4,420.3,18.7,1127.8l-7,1039.1l-352.6,7C6854.5-101.8,6688.7-106.5,6679.3-113.5z"/></g></g>
</svg>