<?xml version="1.0" encoding="utf-8"?>
<!-- Svg Vector Icons : http://www.onlinewebfonts.com/icon -->
<!DOCTYPE svg PUBLIC "-//W3C//DTD SVG 1.1//EN" "http://www.w3.org/Graphics/SVG/1.1/DTD/svg11.dtd">
<svg version="1.1" xmlns="http://www.w3.org/2000/svg" xmlns:xlink="http://www.w3.org/1999/xlink" x="0px" y="0px" viewBox="0 0 1000 1000" enable-background="new 0 0 1000 1000" xml:space="preserve">
<metadata> Svg Vector Icons : http://www.onlinewebfonts.com/icon </metadata>
<g><path d="M649,736l-0.1,51.1c0,9.4-7.7,17-17.1,17H368.1c-9.4,0-17.1-7.6-17.1-17V736c0-9.4,7.7-17.1,17.1-17.1h67.8V459.6h-38.2c-9.4,0-17.1-7.7-17.1-17.1v-51c0-9.4,7.7-17.1,17.1-17.1h148.9c9.4,0,17.1,7.7,17.1,17.1V719h68.2C641.3,719,649,726.6,649,736z M452.9,309.4h93.8c9.4,0,17.1-7.7,17.1-17.1v-93.7c0-9.4-7.7-17.1-17.1-17.1H453c-9.5,0-17.1,7.7-17.1,17.1v93.7C435.9,301.7,443.5,309.4,452.9,309.4z M990,500c0,270.6-219.4,490-490,490C229.4,990,10,770.6,10,500C10,229.4,229.4,10,500,10C770.6,10,990,229.4,990,500z M900.1,500c0-106.9-41.6-207.3-117.3-282.9C707.3,141.5,606.8,99.9,500,99.9c-106.9,0-207.3,41.6-283,117.2C141.4,292.7,99.8,393.1,99.8,500c0,106.9,41.7,207.3,117.3,282.9c75.6,75.6,176,117.2,282.9,117.2c106.9,0,207.3-41.6,283-117.2C858.5,707.3,900.1,606.9,900.1,500z"/></g>
</svg>