<?xml version="1.0" encoding="utf-8"?>
<!-- Svg Vector Icons : http://www.onlinewebfonts.com/icon -->
<!DOCTYPE svg PUBLIC "-//W3C//DTD SVG 1.1//EN" "http://www.w3.org/Graphics/SVG/1.1/DTD/svg11.dtd">
<svg version="1.1" xmlns="http://www.w3.org/2000/svg" xmlns:xlink="http://www.w3.org/1999/xlink" x="0px" y="0px" viewBox="0 0 1000 1000" enable-background="new 0 0 1000 1000" xml:space="preserve">
<metadata> Svg Vector Icons : http://www.onlinewebfonts.com/icon </metadata>
<g><path d="M379.2,579l51.1-49.1v-30.8H151.2v81.4h227.8L379.2,579z M591.1,375.4v-36.6H151.2v81.4h393.3L591.1,375.4z M655,840.3H71.1V199.6H232c13.1,25.2,42.2,38.4,76.1,38.4l143.1,0.6c33.9,0,63.1-13.5,76.1-39H655V314l80.2-77v-5.5c0-52.6-45.6-95.1-98.3-95.1H527.6c-12.9-25.8-42.3-39.2-76.5-39.2H308c-34.2,0-63.6,13.4-76.5,39.2H105.4c-52.7,0-95.4,42.5-95.4,95.1v571.6c0,52.6,42.7,99.7,95.4,99.7h524.6c52.7,0,105.2-47,105.2-99.7V692.8L655,789.8L655,840.3L655,840.3z M348.1,137.2H411c20.3,0,36.7,9.5,36.7,29.8c0,20.3-16.4,31-36.7,31h-62.9c-20.3,0-36.7-10.7-36.7-31C311.4,146.7,327.8,137.2,348.1,137.2z M354.6,740.8l12.2-80.5H151.3v80.5L354.6,740.8z M726.5,305.4L892,470.7l37.9-35.5L764.4,269.9L726.5,305.4z M540,696.8L804,433.4l-43.9-43.8L496.1,653l38.4,8.6L540,696.8z M568.5,725.6l-98.8-98.7L734.1,363l-31.5-31.4L435.6,596l17,17l-29.8,101.3l-5.5-5.5l-20.7,70.3c-1.5,5.2-0.5,10.8,2.7,15l-1.4,4.8l4.8-1.4c3,2.2,6.5,3.4,10.2,3.4c1.6,0,3.2-0.2,4.8-0.7l70.4-20.6l-5.5-5.5L584,744.3l17,17l267-264.4l-35.2-35.2L568.5,725.6z M973.4,303l-79.3-79.2c-21.9-21.9-57.2-22-78.9-0.4l-24.3,24.6l158.6,158.5l24.3-24.6C995.5,360.2,995.3,324.9,973.4,303z"/></g>
</svg>