<?xml version="1.0" encoding="utf-8"?>
<!-- Svg Vector Icons : http://www.onlinewebfonts.com/icon -->
<!DOCTYPE svg PUBLIC "-//W3C//DTD SVG 1.1//EN" "http://www.w3.org/Graphics/SVG/1.1/DTD/svg11.dtd">
<svg version="1.1" xmlns="http://www.w3.org/2000/svg" xmlns:xlink="http://www.w3.org/1999/xlink" x="0px" y="0px" viewBox="0 0 1000 1000" enable-background="new 0 0 1000 1000" xml:space="preserve">
<metadata> Svg Vector Icons : http://www.onlinewebfonts.com/icon </metadata>
<g><g><g><path d="M892,385.7H630.7v-98L434.7,59H75.3C39.4,59,10,88.4,10,124.3v751.3c0,35.9,29.4,65.3,65.3,65.3h490c35.9,0,65.3-29.4,65.3-65.3v-65.3H892c55.5,0,98-42.5,98-98V483.7C990,428.1,947.5,385.7,892,385.7z M434.7,108l153.5,179.7H467.3c-16.3,0-32.7-16.3-32.7-32.7V108z M598,875.7c0,16.3-13.1,32.7-32.7,32.7h-490c-16.3,0-32.7-13.1-32.7-32.7V124.3c0-16.3,13.1-32.7,32.7-32.7H402V255c0,35.9,29.4,65.3,65.3,65.3H598v65.3H336.7c-55.5,0-98,42.5-98,98v228.7c0,55.5,42.5,98,98,98H598V875.7z M957.3,712.3c0,35.9-29.4,65.3-65.3,65.3H336.7c-35.9,0-65.3-29.4-65.3-65.3V483.7c0-35.9,29.4-65.3,65.3-65.3H892c35.9,0,65.3,29.4,65.3,65.3V712.3z"/><path d="M598,647v-98c0-35.9-29.4-65.3-65.3-65.3H500c-35.9,0-65.3,29.4-65.3,65.3v98c0,35.9,29.4,65.3,65.3,65.3h32.7c6.5,0,16.3,0,22.9-3.3l29.4,29.4l22.9-22.9l-26.1-26.1C591.5,679.7,598,663.3,598,647z M565.3,647c0,6.5-3.3,13.1-6.5,19.6l-45.7-45.7l-22.9,22.9l35.9,35.9H500c-19.6,0-32.7-13.1-32.7-32.7v-98c0-19.6,13.1-32.7,32.7-32.7h32.7c19.6,0,32.7,13.1,32.7,32.7V647z"/><polygon points="630.7,516.3 696,516.3 696,712.3 728.7,712.3 728.7,516.3 794,516.3 794,483.7 630.7,483.7 "/></g></g><g></g><g></g><g></g><g></g><g></g><g></g><g></g><g></g><g></g><g></g><g></g><g></g><g></g><g></g><g></g></g>
</svg>